<?xml version="1.0" encoding="UTF-8"?>
<!DOCTYPE svg PUBLIC "-//W3C//DTD SVG 1.1//EN"
    "http://www.w3.org/Graphics/SVG/1.1/DTD/svg11.dtd">

<svg viewBox="-1 -1 2 2" xmlns="http://www.w3.org/2000/svg" xmlns:xlink="http://www.w3.org/1999/xlink">
    <path stroke="black" stroke-width="0.1" fill="none" d="M 0.15,-0.95 L 0.95,-0.95 L 0.95,-0.15 " />
    <path stroke="black" stroke-width="0.1" fill="none" d="M 0.15,-0.95 L 0.95,-0.95 L 0.95,-0.15 " transform="rotate(90,0,0)" />
    <path stroke="black" stroke-width="0.1" fill="none" d="M 0.15,-0.95 L 0.95,-0.95 L 0.95,-0.15 " transform="rotate(180,0,0)" />
    <path stroke="black" stroke-width="0.1" fill="none" d="M 0.15,-0.95 L 0.95,-0.95 L 0.95,-0.15 " transform="rotate(270,0,0)" />
    <path stroke="black" stroke-width="5.0e-2" stroke-linejoin="round" stroke-linecap="round" stroke-dasharray="0 0.2" fill="none" d="M 0.7,0.7 L -0.7,0.7 L -0.7,-0.7 L 0.7,-0.7 Z" />
    <path d="M 0.48,0.0 L 0.48,0.0 L -2.0981465e-8,0.48 L -0.48,-4.196293e-8 L 5.7239427e-9,-0.48 L 0.48,0.0 ZM 0.33941123,0.33941123 L 0.33941123,0.33941123 L -0.33941123,0.33941123 L -0.3394112,-0.3394113 L 0.33941135,-0.33941114 L 0.33941123,0.33941123 Z" stroke-width="4.0e-2" fill="none" stroke="black" />
</svg>
