<?xml version="1.0" encoding="UTF-8"?>
<!DOCTYPE svg PUBLIC "-//W3C//DTD SVG 1.1//EN"
    "http://www.w3.org/Graphics/SVG/1.1/DTD/svg11.dtd">

<svg viewBox="-1 -1 2 2" xmlns="http://www.w3.org/2000/svg" xmlns:xlink="http://www.w3.org/1999/xlink">
    <path stroke="black" stroke-width="0.1" fill="none" d="M 0.15,-0.95 L 0.95,-0.95 L 0.95,-0.15 " />
    <path stroke="black" stroke-width="0.1" fill="none" d="M 0.15,-0.95 L 0.95,-0.95 L 0.95,-0.15 " transform="rotate(90,0,0)" />
    <path stroke="black" stroke-width="0.1" fill="none" d="M 0.15,-0.95 L 0.95,-0.95 L 0.95,-0.15 " transform="rotate(180,0,0)" />
    <path stroke="black" stroke-width="0.1" fill="none" d="M 0.15,-0.95 L 0.95,-0.95 L 0.95,-0.15 " transform="rotate(270,0,0)" />
    <path stroke="black" stroke-width="5.0e-2" stroke-linejoin="round" stroke-linecap="round" stroke-dasharray="0 0.2" fill="none" d="M 0.7,0.7 L -0.7,0.7 L -0.7,-0.7 L 0.7,-0.7 Z" />
    <path d="M 0.0,-0.5 L 0.0,-0.5 L 0.5,2.1855694e-8 L -4.371139e-8,0.5 L -0.5,-5.9624403e-9 ZM 0.35355338,-0.35355338 L 0.35355338,-0.35355338 L 0.35355338,0.35355338 L -0.35355344,0.35355332 L -0.35355327,-0.3535535 Z" fill="none" stroke="black" stroke-width="2.0e-2" />
</svg>
