<?xml version="1.0" encoding="UTF-8"?>
<!DOCTYPE svg PUBLIC "-//W3C//DTD SVG 1.1//EN"
    "http://www.w3.org/Graphics/SVG/1.1/DTD/svg11.dtd">

<svg viewBox="0 0 1 1" xmlns="http://www.w3.org/2000/svg" xmlns:xlink="http://www.w3.org/1999/xlink" preserveAspectRatio="xMidYMid slice">
    <g fill="none" stroke-width="6.0e-2" stroke-linecap="round">
        <path stroke="rgb(100, 200, 255)" d="M 0.25,0.0 L 0.17,6.666667e-2 L 0.17,0.32999998 " />
        <path stroke="rgb(150, 170, 255)" d="M 0.0,0.25 L 6.666667e-2,0.17 L 0.32999998,0.17 L 0.32999998,0.43333334 L 0.25,0.5 " />
        <path stroke="rgb(100, 200, 255)" d="M 0.17,0.32999998 L 0.43333334,0.32999998 L 0.5,0.25 " />
        <rect x="0.14" y="0.29999998" width="6.0e-2" height="6.0e-2" fill="rgb(100, 200, 255)" />
    </g>
    <g fill="none" stroke-width="6.0e-2" stroke-linecap="round" transform="rotate(180.0,0.5,0.5)">
        <path stroke="rgb(100, 200, 255)" d="M 0.25,0.0 L 0.17,6.666667e-2 L 0.17,0.32999998 " />
        <path stroke="rgb(150, 170, 255)" d="M 0.0,0.25 L 6.666667e-2,0.17 L 0.32999998,0.17 L 0.32999998,0.43333334 L 0.25,0.5 " />
        <path stroke="rgb(100, 200, 255)" d="M 0.17,0.32999998 L 0.43333334,0.32999998 L 0.5,0.25 " />
        <rect x="0.14" y="0.29999998" width="6.0e-2" height="6.0e-2" fill="rgb(100, 200, 255)" />
    </g>
    <g fill="none" stroke-width="6.0e-2" stroke-linecap="round" transform="rotate(90.0,0.25,0.25)translate(0.5 0.0)">
        <path stroke="rgb(100, 200, 255)" d="M 0.25,0.0 L 0.17,6.666667e-2 L 0.17,0.32999998 " />
        <path stroke="rgb(150, 170, 255)" d="M 0.0,0.25 L 6.666667e-2,0.17 L 0.32999998,0.17 L 0.32999998,0.43333334 L 0.25,0.5 " />
        <path stroke="rgb(100, 200, 255)" d="M 0.17,0.32999998 L 0.43333334,0.32999998 L 0.5,0.25 " />
        <rect x="0.14" y="0.29999998" width="6.0e-2" height="6.0e-2" fill="rgb(100, 200, 255)" />
    </g>
    <g fill="none" stroke-width="6.0e-2" stroke-linecap="round" transform="rotate(270.0,0.25,0.25)translate(0.0 0.5)">
        <path stroke="rgb(100, 200, 255)" d="M 0.25,0.0 L 0.17,6.666667e-2 L 0.17,0.32999998 " />
        <path stroke="rgb(150, 170, 255)" d="M 0.0,0.25 L 6.666667e-2,0.17 L 0.32999998,0.17 L 0.32999998,0.43333334 L 0.25,0.5 " />
        <path stroke="rgb(100, 200, 255)" d="M 0.17,0.32999998 L 0.43333334,0.32999998 L 0.5,0.25 " />
        <rect x="0.14" y="0.29999998" width="6.0e-2" height="6.0e-2" fill="rgb(100, 200, 255)" />
    </g>
</svg>
